g Ferrari_Roma_2020Grille5_Geo_lodA
v -0.5977097 0.7028842 0.9325473
v -0.6000148 0.7032989 0.9268713
v -0.5938259 0.7030923 0.9360192
v -0.5882572 0.7033004 0.9387635
v -0.6006621 0.7037136 0.9215821
v -0.5163212 0.7089297 0.9629222
v -0.6023375 0.7213084 0.7542992
v -0.5123997 0.7093524 0.9635938
v -0.5083185 0.7097751 0.9635482
v -0.5046435 0.7103496 0.9620577
v -0.5016988 0.7109239 0.9598389
v -0.4052742 0.730661 0.8775586
v -0.3996538 0.7319549 0.8714124
v -0.3971172 0.7331249 0.863128
v -0.3962444 0.7374521 0.8233653
v -0.3968614 0.7379446 0.8180711
v -0.3981291 0.7382748 0.8136061
v -0.4010771 0.7383656 0.8095922
v -0.4046758 0.7382941 0.8064076
v -0.6004508 0.7222034 0.7485719
v -0.5960782 0.7230983 0.7441747
v -0.5905903 0.7239835 0.7412323
v -0.5835505 0.7248686 0.7409527
v 0.08469604 0.6141878 1.665392
v 0.08183926 0.6047947 1.699093
v 0.06772278 0.6194662 1.663605
v 0.1015757 0.6076466 1.669188
v 0.1048827 0.6057648 1.671586
v 0.106085 0.6043028 1.675104
v 0.1040937 0.5971529 1.701753
v 0.07809239 0.5967205 1.72722
v 0.1001378 0.5893481 1.729837
v 0.05286873 0.6041464 1.723846
v 0.0553285 0.6131124 1.6955
v 0.04902493 0.5949158 1.752098
v 0.07367608 0.5884963 1.753685
v 0.06881358 0.5835946 1.770213
v 0.0468406 0.5902344 1.766562
v 0.06030694 0.5790517 1.78634
v 0.04920786 0.5767835 1.797324
v 0.04456396 0.576744 1.799859
v 0.04153066 0.5771528 1.801162
v 0.04262079 0.5648566 1.826867
v 0.03775621 0.5652973 1.828832
v 0.05142515 0.5662069 1.820181
v 0.07002607 0.5706283 1.800838
v 0.08087798 0.574 1.785624
v 0.08835452 0.5776674 1.771307
v 0.09406822 0.581756 1.756302
v 0.03877342 0.5788037 1.802187
v 0.0345571 0.567081 1.82859
v 0.03380803 0.5678249 1.828191
v 0.03702956 0.5809729 1.802802
v 0.04433816 0.5917006 1.766493
v 0.04246408 0.5942098 1.766879
v 0.04089738 0.5978327 1.76737
v 0.04474209 0.5983266 1.752121
v 0.04358043 0.6009265 1.75237
v 0.04929568 0.6061047 1.723742
v 0.04803552 0.607796 1.723779
v 0.04654866 0.5961848 1.751897
v 0.0317797 0.5694159 1.827521
v 0.03405564 0.5834781 1.803818
v 0.0273755 0.5713886 1.82686
v 0.0294131 0.5847672 1.805075
v 0.01577979 0.5733482 1.826199
v 0.0154907 0.5859389 1.806547
v 0.01582251 0.5974973 1.786273
v 0.03158299 0.5970415 1.782676
v -4.270498E-06 0.5977739 1.78729
v -4.270498E-06 0.5865358 1.806717
v -4.270498E-06 0.5742962 1.826223
v 0.03487365 0.5968893 1.780613
v 0.03719419 0.5968994 1.77781
v 0.05371107 0.6138058 1.695372
v 0.05224728 0.6146702 1.695371
v 0.05405273 0.6174005 1.683872
v 0.05089494 0.6049292 1.723725
v 0.05623333 0.6164112 1.685067
v 0.0560096 0.6194186 1.674439
v 0.05771771 0.6201793 1.670416
v 0.0603666 0.6205406 1.666976
v 0.06381737 0.6202651 1.664668
v -0.08470459 0.6141878 1.665392
v -0.06773132 0.6194662 1.663605
v -0.0818478 0.6047947 1.699093
v -0.1015842 0.6076466 1.669188
v -0.1048913 0.6057648 1.671586
v -0.1060935 0.6043028 1.675104
v -0.1041022 0.5971529 1.701753
v -0.07810094 0.5967205 1.72722
v -0.1001464 0.5893481 1.729837
v -0.05287727 0.6041464 1.723846
v -0.05533705 0.6131124 1.6955
v -0.04903348 0.5949158 1.752098
v -0.07368462 0.5884963 1.753685
v -0.06882213 0.5835946 1.770213
v -0.04684915 0.5902344 1.766562
v -0.06031548 0.5790517 1.78634
v -0.0492164 0.5767835 1.797324
v -0.04457251 0.576744 1.799859
v -0.0415392 0.5771528 1.801162
v -0.04262933 0.5648566 1.826867
v -0.03776475 0.5652973 1.828832
v -0.0514337 0.5662069 1.820181
v -0.07003462 0.5706283 1.800838
v -0.08088653 0.574 1.785624
v -0.08836307 0.5776674 1.771307
v -0.09407677 0.581756 1.756302
v -0.03878196 0.5788037 1.802187
v -0.03456564 0.567081 1.82859
v -0.03381656 0.5678249 1.828191
v -0.0370381 0.5809729 1.802802
v -0.04434671 0.5917006 1.766493
v -0.04247263 0.5942098 1.766879
v -0.04090592 0.5978327 1.76737
v -0.04475063 0.5983266 1.752121
v -0.04358897 0.6009265 1.75237
v -0.04930423 0.6061047 1.723742
v -0.04804407 0.607796 1.723779
v -0.04655721 0.5961848 1.751897
v -0.03178824 0.5694159 1.827521
v -0.03406417 0.5834781 1.803818
v -0.02738404 0.5713886 1.82686
v -0.02942164 0.5847672 1.805075
v -0.01578833 0.5733482 1.826199
v -0.01549924 0.5859389 1.806547
v -0.01583105 0.5974973 1.786273
v -0.03159152 0.5970415 1.782676
v -0.03488219 0.5968893 1.780613
v -0.03720273 0.5968994 1.77781
v -0.05371961 0.6138058 1.695372
v -0.05225582 0.6146702 1.695371
v -0.05406128 0.6174005 1.683872
v -0.05624187 0.6164112 1.685067
v -0.05601814 0.6194186 1.674439
v -0.05772626 0.6201793 1.670416
v -0.06037515 0.6205406 1.666976
v -0.06382592 0.6202651 1.664668
v -0.05090348 0.6049292 1.723725
vt -4.839896 -3.85666
vt -4.91999 -3.559189
vt -4.583465 -4.025293
vt -4.327033 -4.193926
vt -5.000084 -3.261717
vt -0.4240097 -5.504704
vt -5.090986 5.814532
vt -0.2069083 -5.521687
vt 0.01019308 -5.53867
vt 0.1897752 -5.438039
vt 0.3693572 -5.337407
vt 5.601058 -0.8731397
vt 5.906003 -0.5396692
vt 6.043632 -0.09018201
vt 6.090986 2.067218
vt 6.05751 2.354467
vt 6.024034 2.641717
vt 5.828778 2.814503
vt 5.633522 2.98729
vt -4.921181 6.089196
vt -4.751376 6.36386
vt -4.41152 6.451264
vt -4.071664 6.53867
vt 38.98133 33.84937
vt 36.5252 19.46427
vt 31.77669 35.78352
vt 46.15086 30.91462
vt 47.49507 29.60256
vt 47.87737 27.97988
vt 45.91135 16.62799
vt 33.92456 7.595245
vt 43.11614 4.814164
vt 23.52284 10.70712
vt 25.44212 22.8106
vt 21.04333 -1.243433
vt 31.1635 -3.539742
vt 28.57147 -10.3575
vt 19.63822 -7.314885
vt 24.53572 -16.83609
vt 19.6334 -20.95392
vt 17.64528 -21.76521
vt 16.33525 -22.0922
vt 16.07537 -33.65738
vt 14.00639 -34.17701
vt 19.86125 -31.20314
vt 28.07152 -23.85687
vt 33.06801 -17.99063
vt 36.66985 -12.29036
vt 39.59154 -6.186183
vt 14.96655 -22.0958
vt 12.59959 -33.69363
vt 12.25327 -33.39489
vt 13.83714 -21.85472
vt 18.51192 -6.978558
vt 17.28905 -6.617851
vt 15.78807 -6.066449
vt 18.87618 -0.5871251
vt 17.7923 -0.1922004
vt 21.89826 11.13656
vt 21.08864 11.42918
vt 19.96629 -0.9059982
vt 11.33783 -32.82293
vt 12.22108 -21.68618
vt 9.469713 -32.18346
vt 10.22292 -21.86516
vt 4.738338 -31.55546
vt 4.589288 -22.15869
vt 4.677491 -12.83685
vt 11.01316 -11.61018
vt -1.615254 -13.16618
vt -1.615557 -22.09637
vt -1.65607 -31.34586
vt 12.4001 -10.90067
vt 13.47473 -9.907718
vt 24.74201 23.00216
vt 24.06309 23.16775
vt 25.23961 27.96205
vt 22.68009 10.92143
vt 26.12912 27.30005
vt 26.41867 31.87922
vt 27.28111 33.50789
vt 28.52168 34.82577
vt 30.07234 35.59091
vt -40.53132 31.86411
vt -33.78593 33.60819
vt -38.41602 18.32998
vt -47.25232 29.2275
vt -48.53287 28.02549
vt -48.92057 26.51483
vt -47.32534 15.82531
vt -36.13269 7.02855
vt -44.95544 4.554254
vt -26.17863 9.882774
vt -27.92122 21.37576
vt -23.88366 -1.579815
vt -33.65956 -3.68819
vt -31.25932 -10.32604
vt -22.55631 -7.457106
vt -27.41871 -16.70935
vt -22.65547 -20.80895
vt -20.70841 -21.6277
vt -19.42172 -21.96273
vt -19.30724 -33.39795
vt -17.26598 -33.94081
vt -23.01946 -30.91706
vt -31.00422 -23.53987
vt -35.78501 -17.68147
vt -39.15753 -12.04212
vt -41.82897 -6.070054
vt -18.07328 -21.97931
vt -15.867 -33.48236
vt -15.52033 -33.19172
vt -16.95804 -21.75167
vt -21.45633 -7.134125
vt -20.26205 -6.785751
vt -18.79544 -6.248717
vt -21.79548 -0.9575171
vt -20.7525 -0.580712
vt -24.6273 10.28202
vt -23.85408 10.55663
vt -22.84538 -1.260262
vt -14.6065 -32.63863
vt -15.36147 -21.59979
vt -12.74645 -32.03165
vt -13.387 -21.79375
vt -8.037642 -31.47231
vt -7.80219 -22.12438
vt -7.882835 -12.87153
vt -14.13707 -11.68752
vt -15.49621 -10.99501
vt -16.54626 -10.02108
vt -27.25762 21.55343
vt -26.61434 21.70704
vt -27.71238 26.22241
vt -28.55086 25.60431
vt -28.79077 29.90399
vt -29.58773 31.43862
vt -30.74117 32.68454
vt -32.18946 33.41429
vt -25.37389 10.08156
vn -0.1126025 0.988071 0.1050544
vn -0.1125696 0.9880779 0.1050242
vn -0.1125696 0.9880779 0.1050242
vn -0.1126025 0.988071 0.1050544
vn -0.1126027 0.988071 0.1050545
vn -0.1126027 0.988071 0.1050543
vn -0.1126032 0.9880709 0.1050543
vn -0.1125696 0.9880779 0.1050242
vn -0.1126027 0.988071 0.1050543
vn -0.1125696 0.9880779 0.1050242
vn -0.1126028 0.9880709 0.1050544
vn -0.1126027 0.9880704 0.1050596
vn -0.1126026 0.9880704 0.1050595
vn -0.1126025 0.9880704 0.1050594
vn -0.112603 0.9880708 0.1050549
vn -0.1125696 0.9880779 0.1050242
vn -0.112603 0.9880708 0.1050549
vn -0.1125696 0.9880779 0.1050242
vn -0.112603 0.9880708 0.1050548
vn -0.1125696 0.9880779 0.1050242
vn -0.1126031 0.9880709 0.1050543
vn -0.1125696 0.9880779 0.1050242
vn -0.1126031 0.9880709 0.1050543
vn 0.2724501 0.9199604 0.2818577
vn 0.2642592 0.9201372 0.2889889
vn 0.2631505 0.9217617 0.2847934
vn 0.2863168 0.9170084 0.2777019
vn 0.2887655 0.9163952 0.2771899
vn 0.2888345 0.9163067 0.2774105
vn 0.2795588 0.917702 0.2822587
vn 0.2493807 0.9189048 0.3056521
vn 0.2686907 0.9137639 0.3046978
vn 0.2351456 0.9213706 0.309488
vn 0.2513798 0.9218725 0.2948886
vn 0.2217073 0.9152496 0.3363988
vn 0.241168 0.9105783 0.335686
vn 0.2342201 0.9041295 0.3573385
vn 0.2155061 0.9103827 0.3532143
vn 0.2172306 0.9015719 0.3741376
vn 0.2099991 0.8982177 0.3861416
vn 0.2189192 0.8951174 0.3883802
vn 0.2249467 0.8931308 0.3895077
vn 0.1998881 0.8914346 0.4066804
vn 0.1994665 0.8905647 0.4087878
vn 0.2007949 0.8932967 0.4021225
vn 0.2170314 0.8995909 0.3789902
vn 0.2369829 0.8997372 0.3664863
vn 0.2520491 0.9004439 0.3545023
vn 0.2612332 0.9047755 0.3363608
vn 0.5970626 0.6965864 0.3978489
vn 0.5328968 0.7343371 0.4204403
vn 0.6727244 0.619172 0.4050531
vn 0.6978279 0.6039188 0.3851213
vn 0.6242307 0.6957728 0.3552975
vn 0.7314355 0.587883 0.3455367
vn 0.8876727 0.3791161 0.2613582
vn 0.7777942 0.5605718 0.2842453
vn 0.8422362 0.4684057 0.2668973
vn 0.699396 0.6549434 0.2861719
vn 0.7581522 0.5934812 0.270158
vn 0.6498075 0.6931854 0.3118403
vn 0.4875604 0.7330784 0.4742162
vn 0.4883476 0.7387656 0.4644803
vn 0.2758689 0.8088838 0.5192335
vn 0.3006162 0.8115704 0.5009824
vn 0.04967034 0.8421529 0.5369463
vn 0.04818935 0.8546228 0.5170083
vn 0.0495211 0.8665766 0.4965811
vn 0.2824529 0.8285469 0.4834567
vn 0 0.8676411 0.4971911
vn 0 0.8556169 0.5176097
vn 0 0.8431937 0.5376099
vn 0.4718153 0.7562625 0.453274
vn 0.743517 0.5644303 0.3586096
vn 0.4215614 0.8587505 0.291262
vn 0.5778487 0.7673246 0.2780356
vn 0.2816615 0.9206525 0.2703066
vn 0.5628952 0.7686734 0.3037931
vn 0.2534287 0.9221669 0.2922021
vn 0.2554786 0.9224513 0.2895071
vn 0.2564816 0.9225194 0.2884011
vn 0.2584881 0.9223797 0.2870533
vn 0.2607839 0.9221167 0.2858191
vn -0.2724501 0.9199604 0.2818577
vn -0.2631505 0.9217617 0.2847934
vn -0.2642592 0.9201372 0.2889889
vn -0.2863168 0.9170084 0.2777019
vn -0.2887655 0.9163952 0.2771899
vn -0.2888345 0.9163067 0.2774105
vn -0.2795588 0.917702 0.2822587
vn -0.2493807 0.9189048 0.3056521
vn -0.2686907 0.9137639 0.3046978
vn -0.2351456 0.9213706 0.309488
vn -0.2513798 0.9218725 0.2948886
vn -0.2217073 0.9152496 0.3363988
vn -0.241168 0.9105783 0.335686
vn -0.2342201 0.9041295 0.3573385
vn -0.2155061 0.9103827 0.3532143
vn -0.2172306 0.9015719 0.3741376
vn -0.2099991 0.8982177 0.3861416
vn -0.2189192 0.8951174 0.3883802
vn -0.2249467 0.8931308 0.3895077
vn -0.1998881 0.8914346 0.4066804
vn -0.1994665 0.8905647 0.4087878
vn -0.2007949 0.8932967 0.4021225
vn -0.2170314 0.8995909 0.3789902
vn -0.2369829 0.8997372 0.3664863
vn -0.2520491 0.9004439 0.3545023
vn -0.2612332 0.9047755 0.3363608
vn -0.5970626 0.6965864 0.3978489
vn -0.5328968 0.7343371 0.4204403
vn -0.6727244 0.619172 0.4050531
vn -0.6978279 0.6039188 0.3851213
vn -0.6242307 0.6957728 0.3552975
vn -0.7314355 0.587883 0.3455367
vn -0.8876727 0.3791161 0.2613582
vn -0.7777942 0.5605718 0.2842453
vn -0.8422362 0.4684057 0.2668973
vn -0.699396 0.6549434 0.2861719
vn -0.7581522 0.5934812 0.270158
vn -0.6498075 0.6931854 0.3118403
vn -0.4875604 0.7330784 0.4742162
vn -0.4883476 0.7387656 0.4644803
vn -0.2758689 0.8088838 0.5192335
vn -0.3006162 0.8115704 0.5009824
vn -0.04967034 0.8421529 0.5369463
vn -0.04818935 0.8546228 0.5170083
vn -0.0495211 0.8665766 0.4965811
vn -0.2824529 0.8285469 0.4834567
vn -0.4718153 0.7562625 0.453274
vn -0.743517 0.5644303 0.3586096
vn -0.4215614 0.8587505 0.291262
vn -0.5778487 0.7673246 0.2780356
vn -0.2816615 0.9206525 0.2703066
vn -0.2534287 0.9221669 0.2922021
vn -0.2554786 0.9224513 0.2895071
vn -0.2564816 0.9225194 0.2884011
vn -0.2584881 0.9223797 0.2870533
vn -0.2607839 0.9221167 0.2858191
vn -0.5628952 0.7686734 0.3037931
g Ferrari_Roma_2020Grille5_Geo_lodA_0
f 3/3/3 2/2/2 1/1/1
f 4/4/4 2/2/2 3/3/3
f 4/4/4 5/5/5 2/2/2
f 6/6/6 5/5/5 4/4/4
f 6/6/6 7/7/7 5/5/5
f 8/8/8 7/7/7 6/6/6
f 9/9/9 7/7/7 8/8/8
f 10/10/10 7/7/7 9/9/9
f 11/11/11 7/7/7 10/10/10
f 12/12/12 7/7/7 11/11/11
f 13/13/13 7/7/7 12/12/12
f 14/14/14 7/7/7 13/13/13
f 15/15/15 7/7/7 14/14/14
f 16/16/16 7/7/7 15/15/15
f 17/17/17 7/7/7 16/16/16
f 18/18/18 7/7/7 17/17/17
f 19/19/19 7/7/7 18/18/18
f 19/19/19 20/20/20 7/7/7
f 19/19/19 21/21/21 20/20/20
f 19/19/19 22/22/22 21/21/21
f 23/23/23 22/22/22 19/19/19
f 26/26/26 25/25/25 24/24/24
f 25/25/25 27/27/27 24/24/24
f 25/25/25 28/28/28 27/27/27
f 29/29/29 28/28/28 25/25/25
f 29/29/29 25/25/25 30/30/30
f 30/30/30 25/25/25 31/31/31
f 30/30/30 31/31/31 32/32/32
f 33/33/33 31/31/31 25/25/25
f 33/33/33 25/25/25 34/34/34
f 35/35/35 31/31/31 33/33/33
f 35/35/35 36/36/36 31/31/31
f 36/36/36 32/32/32 31/31/31
f 37/37/37 36/36/36 35/35/35
f 37/37/37 35/35/35 38/38/38
f 39/39/39 37/37/37 38/38/38
f 40/40/40 39/39/39 38/38/38
f 40/40/40 38/38/38 41/41/41
f 41/41/41 38/38/38 42/42/42
f 43/43/43 41/41/41 42/42/42
f 43/43/43 42/42/42 44/44/44
f 45/45/45 41/41/41 43/43/43
f 45/45/45 40/40/40 41/41/41
f 40/40/40 46/46/46 39/39/39
f 40/40/40 45/45/45 46/46/46
f 39/39/39 47/47/47 37/37/37
f 39/39/39 46/46/46 47/47/47
f 48/48/48 36/36/36 37/37/37
f 48/48/48 37/37/37 47/47/47
f 48/48/48 49/49/49 36/36/36
f 36/36/36 49/49/49 32/32/32
f 44/44/44 42/42/42 50/50/50
f 44/44/44 50/50/50 51/51/51
f 50/50/50 52/52/52 51/51/51
f 50/50/50 53/53/53 52/52/52
f 54/54/54 53/53/53 50/50/50
f 42/42/42 54/54/54 50/50/50
f 54/54/54 55/55/55 53/53/53
f 53/53/53 55/55/55 56/56/56
f 57/57/57 56/56/56 55/55/55
f 57/57/57 58/58/58 56/56/56
f 59/59/59 58/58/58 57/57/57
f 59/59/59 60/60/60 58/58/58
f 61/61/61 55/55/55 54/54/54
f 61/61/61 57/57/57 55/55/55
f 62/62/62 52/52/52 53/53/53
f 62/62/62 53/53/53 63/63/63
f 64/64/64 62/62/62 63/63/63
f 64/64/64 63/63/63 65/65/65
f 66/66/66 64/64/64 65/65/65
f 66/66/66 65/65/65 67/67/67
f 68/68/68 67/67/67 65/65/65
f 68/68/68 65/65/65 69/69/69
f 69/69/69 65/65/65 63/63/63
f 70/70/70 67/67/67 68/68/68
f 70/70/70 71/71/71 67/67/67
f 72/72/72 67/67/67 71/71/71
f 72/72/72 66/66/66 67/67/67
f 69/69/69 63/63/63 73/73/73
f 74/74/74 73/73/73 63/63/63
f 60/60/60 59/59/59 75/75/75
f 60/60/60 75/75/75 76/76/76
f 76/76/76 75/75/75 77/77/77
f 59/59/59 78/78/78 75/75/75
f 57/57/57 78/78/78 59/59/59
f 57/57/57 61/61/61 78/78/78
f 33/33/33 78/78/78 61/61/61
f 33/33/33 61/61/61 35/35/35
f 35/35/35 61/61/61 54/54/54
f 35/35/35 54/54/54 38/38/38
f 42/42/42 38/38/38 54/54/54
f 34/34/34 78/78/78 33/33/33
f 34/34/34 75/75/75 78/78/78
f 79/79/79 75/75/75 34/34/34
f 79/79/79 77/77/77 75/75/75
f 79/79/79 34/34/34 25/25/25
f 80/80/80 79/79/79 25/25/25
f 80/80/80 77/77/77 79/79/79
f 81/81/81 80/80/80 25/25/25
f 82/82/82 81/81/81 25/25/25
f 83/83/83 82/82/82 25/25/25
f 26/26/26 83/83/83 25/25/25
f 56/56/56 74/74/74 53/53/53
f 74/74/74 63/63/63 53/53/53
f 86/86/86 85/85/85 84/84/84
f 87/87/87 86/86/86 84/84/84
f 88/88/88 86/86/86 87/87/87
f 88/88/88 89/89/89 86/86/86
f 86/86/86 89/89/89 90/90/90
f 90/90/90 91/91/91 86/86/86
f 90/90/90 92/92/92 91/91/91
f 86/86/86 91/91/91 93/93/93
f 86/86/86 93/93/93 94/94/94
f 91/91/91 95/95/95 93/93/93
f 91/91/91 96/96/96 95/95/95
f 92/92/92 96/96/96 91/91/91
f 95/95/95 96/96/96 97/97/97
f 95/95/95 97/97/97 98/98/98
f 97/97/97 99/99/99 98/98/98
f 99/99/99 100/100/100 98/98/98
f 98/98/98 100/100/100 101/101/101
f 98/98/98 101/101/101 102/102/102
f 102/102/102 101/101/101 103/103/103
f 102/102/102 103/103/103 104/104/104
f 101/101/101 105/105/105 103/103/103
f 101/101/101 100/100/100 105/105/105
f 106/106/106 100/100/100 99/99/99
f 106/106/106 105/105/105 100/100/100
f 107/107/107 99/99/99 97/97/97
f 107/107/107 106/106/106 99/99/99
f 108/108/108 97/97/97 96/96/96
f 97/97/97 108/108/108 107/107/107
f 108/108/108 96/96/96 109/109/109
f 92/92/92 109/109/109 96/96/96
f 104/104/104 110/110/110 102/102/102
f 104/104/104 111/111/111 110/110/110
f 112/112/112 110/110/110 111/111/111
f 112/112/112 113/113/113 110/110/110
f 114/114/114 110/110/110 113/113/113
f 102/102/102 110/110/110 114/114/114
f 114/114/114 113/113/113 115/115/115
f 115/115/115 113/113/113 116/116/116
f 116/116/116 117/117/117 115/115/115
f 116/116/116 118/118/118 117/117/117
f 118/118/118 119/119/119 117/117/117
f 118/118/118 120/120/120 119/119/119
f 115/115/115 121/121/121 114/114/114
f 115/115/115 117/117/117 121/121/121
f 122/122/122 113/113/113 112/112/112
f 122/122/122 123/123/123 113/113/113
f 124/124/124 123/123/123 122/122/122
f 124/124/124 125/125/125 123/123/123
f 126/126/126 125/125/125 124/124/124
f 126/126/126 127/127/127 125/125/125
f 125/125/125 127/127/127 128/128/128
f 125/125/125 128/128/128 129/129/129
f 129/129/129 123/123/123 125/125/125
f 70/70/70 128/128/128 127/127/127
f 70/70/70 127/127/127 71/71/71
f 72/72/72 127/127/127 126/126/126
f 72/72/72 71/71/71 127/127/127
f 129/129/129 130/130/130 123/123/123
f 130/130/130 131/131/131 123/123/123
f 132/132/132 119/119/119 120/120/120
f 132/132/132 120/120/120 133/133/133
f 132/132/132 133/133/133 134/134/134
f 123/123/123 131/131/131 113/113/113
f 131/131/131 116/116/116 113/113/113
f 134/134/134 135/135/135 132/132/132
f 132/132/132 135/135/135 94/94/94
f 94/94/94 135/135/135 86/86/86
f 135/135/135 136/136/136 86/86/86
f 134/134/134 136/136/136 135/135/135
f 136/136/136 137/137/137 86/86/86
f 137/137/137 138/138/138 86/86/86
f 138/138/138 139/139/139 86/86/86
f 139/139/139 85/85/85 86/86/86
f 140/140/140 132/132/132 94/94/94
f 140/140/140 119/119/119 132/132/132
f 140/140/140 117/117/117 119/119/119
f 140/140/140 121/121/121 117/117/117
f 93/93/93 121/121/121 140/140/140
f 140/140/140 94/94/94 93/93/93
f 93/93/93 95/95/95 121/121/121
f 114/114/114 121/121/121 95/95/95
f 114/114/114 95/95/95 98/98/98
f 102/102/102 114/114/114 98/98/98
