g Ferrari_Roma_2020Grille6_Geo_lodA
v -0.09597708 0.1730879 2.158367
v -0.0711722 0.1724053 2.159256
v -0.09476134 0.1107656 2.180234
v -0.04722048 0.1109147 2.181376
v -0.03501248 0.1717952 2.160048
v 0 0.1109514 2.181826
v 0 0.1716902 2.160433
v -0.1211792 0.1740232 2.157173
v -0.1422058 0.1105023 2.178403
v -0.1422153 0.1750258 2.155937
v -0.163219 0.1761479 2.154575
v -0.1894368 0.1101226 2.175893
v -0.187195 0.1777305 2.152751
v -0.2365605 0.1096208 2.172701
v -0.233267 0.1817123 2.14862
v -0.2840447 0.1089807 2.168786
v -0.2787025 0.1869029 2.143707
v -0.3310885 0.1081939 2.164214
v -0.3230603 0.1932849 2.138066
v -0.3665651 0.2006849 2.131453
v -0.3786277 0.1072754 2.158872
v -0.3900481 0.1060544 2.157494
v -0.3874587 0.2044976 2.127695
v -0.4177406 0.101537 2.154969
v -0.4104607 0.208827 2.122949
v -0.4427774 0.09971819 2.149896
v -0.4425575 0.2144626 2.114541
v -0.4729014 0.09971118 2.138325
v -0.477268 0.2194106 2.102688
v -0.4975017 0.1001595 2.126031
v -0.5142853 0.223078 2.086171
v -0.5408897 0.1009706 2.102134
v -0.5498518 0.2256275 2.066066
v -0.5767884 0.1017411 2.080275
v -0.590235 0.2267167 2.037957
v -0.6131453 0.1025271 2.05651
v -0.6189309 0.2253919 2.015492
v -0.6423445 0.1043175 2.03551
v -0.6452154 0.2197255 1.994918
v -0.6701562 0.1087613 2.012631
v -0.6705062 0.2081661 1.976626
v -0.6965356 0.1150451 1.988157
v -0.6874596 0.1968931 1.964947
v -0.7239044 0.1232378 1.958953
v -0.724066 0.1672638 1.939947
v -0.7459442 0.1299167 1.930875
v -0.7507406 0.1419927 1.921316
v -0.7591088 0.1334969 1.913208
v 0.09597708 0.1730879 2.158367
v 0.09476134 0.1107656 2.180234
v 0.0711722 0.1724053 2.159256
v 0.04722048 0.1109147 2.181376
v 0.03501248 0.1717952 2.160048
v 0.1211792 0.1740232 2.157173
v 0.1422058 0.1105023 2.178403
v 0.1422153 0.1750258 2.155937
v 0.163219 0.1761479 2.154575
v 0.1894368 0.1101226 2.175893
v 0.187195 0.1777305 2.152751
v 0.2365605 0.1096208 2.172701
v 0.233267 0.1817123 2.14862
v 0.2840447 0.1089807 2.168786
v 0.2787025 0.1869029 2.143707
v 0.3310885 0.1081939 2.164214
v 0.3230603 0.1932849 2.138066
v 0.3665651 0.2006849 2.131453
v 0.3786277 0.1072754 2.158872
v 0.3900481 0.1060544 2.157494
v 0.3874587 0.2044976 2.127695
v 0.4177406 0.101537 2.154969
v 0.4104607 0.208827 2.122949
v 0.4427774 0.09971819 2.149896
v 0.4425575 0.2144626 2.114541
v 0.4729014 0.09971118 2.138325
v 0.477268 0.2194106 2.102688
v 0.4975017 0.1001595 2.126031
v 0.5142853 0.223078 2.086171
v 0.5408897 0.1009706 2.102134
v 0.5498518 0.2256275 2.066066
v 0.5767884 0.1017411 2.080275
v 0.590235 0.2267167 2.037957
v 0.6131453 0.1025271 2.05651
v 0.6189309 0.2253919 2.015492
v 0.6423445 0.1043175 2.03551
v 0.6452154 0.2197255 1.994918
v 0.6701562 0.1087613 2.012631
v 0.6705062 0.2081661 1.976626
v 0.6965356 0.1150451 1.988157
v 0.6874596 0.1968931 1.964947
v 0.7239044 0.1232378 1.958953
v 0.724066 0.1672638 1.939947
v 0.7459442 0.1299167 1.930875
v 0.7507406 0.1419927 1.921316
v 0.7591088 0.1334969 1.913208
vt -3.235086 -1.472775
vt -2.435015 -1.506311
vt -3.204775 -3.603897
vt -1.670038 -3.617427
vt -1.268852 -1.537683
vt -0.1461376 -3.626125
vt -0.13968 -1.548738
vt -4.047478 -1.427843
vt -4.737918 -3.584563
vt -4.725625 -1.380572
vt -5.402822 -1.32788
vt -6.264712 -3.559595
vt -6.175996 -1.255255
vt -7.788822 -3.529749
vt -7.662165 -1.079316
vt -9.325956 -3.4956
vt -9.128099 -0.8574263
vt -10.85061 -3.458831
vt -10.55964 -0.591151
vt -11.96503 -0.2839053
vt -12.39351 -3.418145
vt -12.76611 -3.438174
vt -12.64142 -0.1226099
vt -13.66875 -3.542498
vt -13.38822 0.0648936
vt -14.49475 -3.540152
vt -14.4401 0.3313702
vt -15.52827 -3.417598
vt -15.60007 0.6116821
vt -16.40436 -3.278508
vt -16.88118 0.8963815
vt -17.98016 -3.014888
vt -18.17128 1.175452
vt -19.31467 -2.776354
vt -19.72862 1.480483
vt -20.69217 -2.521159
vt -20.89148 1.655235
vt -21.82461 -2.263846
vt -21.98296 1.679095
vt -22.93912 -1.907326
vt -23.04125 1.500413
vt -24.03599 -1.477847
vt -23.76131 1.267367
vt -25.23897 -0.9407904
vt -25.34653 0.6017716
vt -26.30434 -0.4547217
vt -26.53633 0.01084816
vt -26.96511 -0.1691911
vt 2.955997 -1.492348
vt 2.912028 -3.622727
vt 2.155782 -1.520743
vt 1.377642 -3.626733
vt 0.9895022 -1.544752
vt 3.769236 -1.452872
vt 4.443877 -3.614302
vt 4.448222 -1.410528
vt 5.126281 -1.363115
vt 5.969719 -3.601782
vt 5.900533 -1.29685
vt 7.493325 -3.585522
vt 7.388898 -1.133942
vt 9.030241 -3.565843
vt 8.857508 -0.925647
vt 10.55489 -3.543991
vt 10.29219 -0.6732042
vt 11.70115 -0.379952
vt 12.09798 -3.518839
vt 12.47033 -3.542681
vt 12.37942 -0.2255062
vt 13.37185 -3.656303
vt 13.12838 -0.04564345
vt 14.19785 -3.662516
vt 14.18329 0.2099791
vt 15.23264 -3.550715
vt 15.34643 0.478243
vt 16.1102 -3.420782
vt 16.63077 0.7495697
vt 17.68883 -3.173696
vt 17.92404 1.015115
vt 19.02595 -2.949223
vt 19.48486 1.30375
vt 20.40627 -2.708575
vt 20.64975 1.466222
vt 21.54153 -2.463236
vt 21.74165 1.478528
vt 22.65995 -2.118511
vt 22.79822 1.288606
vt 23.76151 -1.70065
vt 23.51593 1.047884
vt 24.97036 -1.176328
vt 25.09437 0.3653102
vt 26.04104 -0.7015782
vt 26.27802 -0.2384408
vt 26.70488 -0.42306
vn -0.03015321 0.3304304 0.9433486
vn -0.02221509 0.3314983 0.9431943
vn -0.02974547 0.3304916 0.9433401
vn -0.01565086 0.3323502 0.9430262
vn -0.01434921 0.3324953 0.9429958
vn 0 0.3323909 0.9431417
vn 0 0.3325295 0.9430928
vn -0.03765281 0.32908 0.9435511
vn -0.04359531 0.3280051 0.9436695
vn -0.04391398 0.3279375 0.9436782
vn -0.04983194 0.3261303 0.9440105
vn -0.0564281 0.3241146 0.9443334
vn -0.05659123 0.3240499 0.9443458
vn -0.06869951 0.3179218 0.9456248
vn -0.06889706 0.3178028 0.9456503
vn -0.08131884 0.3094859 0.9474205
vn -0.08147769 0.3093705 0.9474446
vn -0.09616752 0.3004751 0.9489292
vn -0.09627789 0.3004167 0.9489364
vn -0.1133409 0.2949058 0.9487805
vn -0.1139088 0.2948087 0.9487426
vn -0.1325115 0.2925114 0.9470363
vn -0.152871 0.289814 0.9447954
vn -0.1817765 0.2885445 0.9400529
vn -0.2203821 0.2864753 0.9323967
vn -0.2306875 0.2860252 0.9300392
vn -0.3065756 0.2706697 0.912551
vn -0.3109321 0.2690509 0.9115552
vn -0.3943453 0.2382068 0.8875524
vn -0.3947527 0.2380541 0.8874123
vn -0.4557884 0.2184732 0.8628594
vn -0.4588644 0.2176865 0.8614268
vn -0.5159785 0.213328 0.8296127
vn -0.5191438 0.2136806 0.8275447
vn -0.559801 0.2231119 0.798025
vn -0.5610307 0.2236159 0.7970197
vn -0.5944629 0.2397895 0.7675381
vn -0.5954971 0.2404329 0.7665346
vn -0.6191192 0.2549195 0.7427702
vn -0.62146 0.2563182 0.74033
vn -0.6390088 0.2650241 0.722101
vn -0.6500152 0.2700959 0.7103016
vn -0.6522028 0.2699479 0.7083499
vn -0.6793292 0.2765564 0.6797267
vn -0.6804782 0.2762139 0.678716
vn -0.7198188 0.2617928 0.6429039
vn -0.7238253 0.255771 0.640826
vn -0.7716783 0.1770549 0.6108717
vn 0.03015321 0.3304304 0.9433486
vn 0.02974547 0.3304916 0.9433401
vn 0.02221509 0.3314983 0.9431943
vn 0.01565086 0.3323502 0.9430262
vn 0.01434921 0.3324953 0.9429958
vn 0.03765281 0.32908 0.9435511
vn 0.04359531 0.3280051 0.9436695
vn 0.04391398 0.3279375 0.9436782
vn 0.04983194 0.3261303 0.9440105
vn 0.0564281 0.3241146 0.9443334
vn 0.05659123 0.3240499 0.9443458
vn 0.06869951 0.3179218 0.9456248
vn 0.06889706 0.3178028 0.9456503
vn 0.08131884 0.3094859 0.9474205
vn 0.08147769 0.3093705 0.9474446
vn 0.09616752 0.3004751 0.9489292
vn 0.09627789 0.3004167 0.9489364
vn 0.1133409 0.2949058 0.9487805
vn 0.1139088 0.2948087 0.9487426
vn 0.1325115 0.2925114 0.9470363
vn 0.152871 0.289814 0.9447954
vn 0.1817765 0.2885445 0.9400529
vn 0.2203821 0.2864753 0.9323967
vn 0.2306875 0.2860252 0.9300392
vn 0.3065756 0.2706697 0.912551
vn 0.3109321 0.2690509 0.9115552
vn 0.3943453 0.2382068 0.8875524
vn 0.3947527 0.2380541 0.8874123
vn 0.4557884 0.2184732 0.8628594
vn 0.4588644 0.2176865 0.8614268
vn 0.5159785 0.213328 0.8296127
vn 0.5191438 0.2136806 0.8275447
vn 0.559801 0.2231119 0.798025
vn 0.5610307 0.2236159 0.7970197
vn 0.5944629 0.2397895 0.7675381
vn 0.5954971 0.2404329 0.7665346
vn 0.6191192 0.2549195 0.7427702
vn 0.62146 0.2563182 0.74033
vn 0.6390088 0.2650241 0.722101
vn 0.6500152 0.2700959 0.7103016
vn 0.6522028 0.2699479 0.7083499
vn 0.6793292 0.2765564 0.6797267
vn 0.6804782 0.2762139 0.678716
vn 0.7198188 0.2617928 0.6429039
vn 0.7238253 0.255771 0.640826
vn 0.7716783 0.1770549 0.6108717
g Ferrari_Roma_2020Grille6_Geo_lodA_0
f 3/3/3 2/2/2 1/1/1
f 3/3/3 4/4/4 2/2/2
f 4/4/4 5/5/5 2/2/2
f 6/6/6 5/5/5 4/4/4
f 6/6/6 7/7/7 5/5/5
f 3/3/3 1/1/1 8/8/8
f 9/9/9 3/3/3 8/8/8
f 9/9/9 8/8/8 10/10/10
f 9/9/9 10/10/10 11/11/11
f 9/9/9 11/11/11 12/12/12
f 12/12/12 11/11/11 13/13/13
f 14/14/14 12/12/12 13/13/13
f 14/14/14 13/13/13 15/15/15
f 16/16/16 14/14/14 15/15/15
f 16/16/16 15/15/15 17/17/17
f 18/18/18 16/16/16 17/17/17
f 18/18/18 17/17/17 19/19/19
f 18/18/18 19/19/19 20/20/20
f 18/18/18 20/20/20 21/21/21
f 22/22/22 21/21/21 20/20/20
f 22/22/22 20/20/20 23/23/23
f 23/23/23 24/24/24 22/22/22
f 24/24/24 23/23/23 25/25/25
f 24/24/24 25/25/25 26/26/26
f 26/26/26 25/25/25 27/27/27
f 26/26/26 27/27/27 28/28/28
f 28/28/28 27/27/27 29/29/29
f 28/28/28 29/29/29 30/30/30
f 30/30/30 29/29/29 31/31/31
f 30/30/30 31/31/31 32/32/32
f 32/32/32 31/31/31 33/33/33
f 32/32/32 33/33/33 34/34/34
f 34/34/34 33/33/33 35/35/35
f 34/34/34 35/35/35 36/36/36
f 36/36/36 35/35/35 37/37/37
f 36/36/36 37/37/37 38/38/38
f 38/38/38 37/37/37 39/39/39
f 38/38/38 39/39/39 40/40/40
f 41/41/41 40/40/40 39/39/39
f 41/41/41 42/42/42 40/40/40
f 42/42/42 41/41/41 43/43/43
f 42/42/42 43/43/43 44/44/44
f 43/43/43 45/45/45 44/44/44
f 46/46/46 44/44/44 45/45/45
f 46/46/46 45/45/45 47/47/47
f 48/48/48 46/46/46 47/47/47
f 51/51/51 50/50/50 49/49/49
f 51/51/51 52/52/52 50/50/50
f 53/53/53 52/52/52 51/51/51
f 6/6/6 52/52/52 53/53/53
f 6/6/6 53/53/53 7/7/7
f 49/49/49 50/50/50 54/54/54
f 54/54/54 50/50/50 55/55/55
f 54/54/54 55/55/55 56/56/56
f 55/55/55 57/57/57 56/56/56
f 55/55/55 58/58/58 57/57/57
f 57/57/57 58/58/58 59/59/59
f 59/59/59 58/58/58 60/60/60
f 59/59/59 60/60/60 61/61/61
f 61/61/61 60/60/60 62/62/62
f 61/61/61 62/62/62 63/63/63
f 63/63/63 62/62/62 64/64/64
f 63/63/63 64/64/64 65/65/65
f 64/64/64 66/66/66 65/65/65
f 64/64/64 67/67/67 66/66/66
f 66/66/66 67/67/67 68/68/68
f 66/66/66 68/68/68 69/69/69
f 70/70/70 69/69/69 68/68/68
f 70/70/70 71/71/71 69/69/69
f 70/70/70 72/72/72 71/71/71
f 72/72/72 73/73/73 71/71/71
f 72/72/72 74/74/74 73/73/73
f 74/74/74 75/75/75 73/73/73
f 74/74/74 76/76/76 75/75/75
f 76/76/76 77/77/77 75/75/75
f 76/76/76 78/78/78 77/77/77
f 78/78/78 79/79/79 77/77/77
f 78/78/78 80/80/80 79/79/79
f 80/80/80 81/81/81 79/79/79
f 80/80/80 82/82/82 81/81/81
f 82/82/82 83/83/83 81/81/81
f 82/82/82 84/84/84 83/83/83
f 84/84/84 85/85/85 83/83/83
f 84/84/84 86/86/86 85/85/85
f 87/87/87 85/85/85 86/86/86
f 87/87/87 86/86/86 88/88/88
f 87/87/87 88/88/88 89/89/89
f 89/89/89 88/88/88 90/90/90
f 91/91/91 89/89/89 90/90/90
f 91/91/91 90/90/90 92/92/92
f 91/91/91 92/92/92 93/93/93
f 92/92/92 94/94/94 93/93/93
